# xmcd
#
# Track frame offsets:
# 150
# 15140
# 32222
# 50385
# 64525
# 79897
# 98030
# 114617
# 131805
# 143372
# 161347
# 181037
# 202950
# 215222
#
# Disc length: 3102 seconds
#
#
# Revision: 3
# Processed by: cddbd v1.5.1PL2 Copyright (c) Steve Scherf et al.
# Submitted via: FreeRIP 2.942 
#
DISCID=b20c1c0e
DTITLE=Chitãozinho and Xororó - Série Bis CD2
DYEAR=2000
DGENRE=Sertanejo
TTITLE0=Chitãozinho and Xororó - Tenho Ciúmes De Tudo
TTITLE1=Chitãozinho and Xororó - Obras De Poeta (Os Passarinhos)
TTITLE2=Chitãozinho and Xororó - Não Desligue O Rádio
TTITLE3=Chitãozinho and Xororó - Matriz Ou Filial
TTITLE4=Chitãozinho and Xororó - Galopeira (Galopera)
TTITLE5=Chitãozinho and Xororó - Majestade O Sabiá
TTITLE6=Chitãozinho and Xororó - Terra Tombada
TTITLE7=Chitãozinho and Xororó - Meu Disfarce
TTITLE8=Chitãozinho and Xororó - Cama De asal
TTITLE9=Chitãozinho and Xororó - Contratempos
TTITLE10=Chitãozinho and Xororó - A Colheita
TTITLE11=Chitãozinho and Xororó - De Coração Para Coração
TTITLE12=Chitãozinho and Xororó - O Dinheiro Compra Tudo
TTITLE13=Chitãozinho and Xororó - Adeus Solidão (Picking Up Pebbles)
EXTD=
EXTT0=
EXTT1=
EXTT2=
EXTT3=
EXTT4=
EXTT5=
EXTT6=
EXTT7=
EXTT8=
EXTT9=
EXTT10=
EXTT11=
EXTT12=
EXTT13=
PLAYORDER=
